<svg width="14" height="14" viewBox="0 0 14 14" fill="none" xmlns="http://www.w3.org/2000/svg">
<path d="M11.5396 7.40243C11.4097 7.3765 11.2798 7.46082 11.2538 7.59416L11.3029 7.60374L11.2539 7.59383C11.1184 8.26323 10.8629 8.89273 10.4162 9.63472L10.4161 9.63472L10.4158 9.63532C10.3485 9.75077 10.3829 9.90031 10.5004 9.96921C10.5424 9.99493 10.585 10.0047 10.6267 10.0047C10.7111 10.0047 10.7896 9.96214 10.8349 9.88473C11.3094 9.09647 11.5854 8.41763 11.7312 7.68838C11.7572 7.55841 11.673 7.42851 11.5396 7.40243ZM11.5396 7.40243C11.5396 7.40242 11.5396 7.40241 11.5395 7.40241L11.53 7.45148L11.5398 7.40245C11.5397 7.40244 11.5397 7.40244 11.5396 7.40243Z" fill="#718193" stroke="#718193" stroke-width="0.1"/>
<path d="M8.11573 6.60401L8.08038 6.63937L8.11573 6.67472L8.38945 6.94844L8.4248 6.9838L8.46016 6.94844L9.10248 6.30612L9.13783 6.27077L9.10248 6.23541L8.82876 5.9617L8.79341 5.92634L8.75805 5.9617L8.11573 6.60401Z" fill="#718193" stroke="#718193" stroke-width="0.1"/>
<path d="M3.17042 9.4004L3.13507 9.43576L3.17042 9.47111L3.44414 9.74483L3.47949 9.78018L3.51485 9.74483L4.15717 9.10251L4.19252 9.06715L4.15717 9.0318L3.88345 8.75808L3.8481 8.72273L3.81274 8.75808L3.17042 9.4004Z" fill="#718193" stroke="#718193" stroke-width="0.1"/>
<path d="M5.11571 8.13427L5.15107 8.09891L5.11571 8.06356L4.842 7.78984L4.80664 7.75449L4.77129 7.78984L4.12896 8.43216L4.09361 8.46752L4.12896 8.50287L4.40268 8.77659L4.43804 8.81194L4.47339 8.77659L5.11571 8.13427Z" fill="#718193" stroke="#718193" stroke-width="0.1"/>
<path d="M7.04638 6.20995L7.08173 6.1746L7.04638 6.13924L6.77266 5.86552L6.7373 5.83017L6.70195 5.86552L6.05963 6.50784L6.02427 6.5432L6.05963 6.57855L6.33335 6.85227L6.3687 6.88763L6.40406 6.85227L7.04638 6.20995Z" fill="#718193" stroke="#718193" stroke-width="0.1"/>
<path d="M6.08056 7.17333L6.11591 7.13797L6.08056 7.10262L5.80684 6.8289L5.77148 6.79355L5.73613 6.8289L5.09381 7.47122L5.05845 7.50658L5.09381 7.54193L5.36752 7.81565L5.40288 7.851L5.43823 7.81565L6.08056 7.17333Z" fill="#718193" stroke="#718193" stroke-width="0.1"/>
<path d="M8.00731 5.24413L8.04267 5.20877L8.00731 5.17342L7.7336 4.8997L7.69824 4.86435L7.66289 4.8997L7.02057 5.54202L6.98521 5.57738L7.02057 5.61273L7.29428 5.88645L7.32964 5.92181L7.36499 5.88645L8.00731 5.24413Z" fill="#718193" stroke="#718193" stroke-width="0.1"/>
<path d="M8.97313 4.28075L9.00849 4.2454L8.97313 4.21004L8.69942 3.93632L8.66406 3.90097L8.62871 3.93632L7.98639 4.57865L7.95103 4.614L7.98639 4.64936L8.2601 4.92307L8.29546 4.95843L8.33081 4.92307L8.97313 4.28075Z" fill="#718193" stroke="#718193" stroke-width="0.1"/>
<path d="M9.93407 3.31542L9.96943 3.28006L9.93407 3.24471L9.66035 2.97099L9.625 2.93564L9.58965 2.97099L8.94732 3.61331L8.91197 3.64867L8.94732 3.68402L9.22104 3.95774L9.2564 3.99309L9.29175 3.95774L9.93407 3.31542Z" fill="#718193" stroke="#718193" stroke-width="0.1"/>
<path d="M4.26319 10.4595L4.22784 10.4948L4.26319 10.5302L4.53691 10.8039L4.57227 10.8393L4.60762 10.8039L5.24994 10.1616L5.2853 10.1262L5.24994 10.0909L4.97623 9.81716L4.94087 9.78181L4.90552 9.81716L4.26319 10.4595Z" fill="#718193" stroke="#718193" stroke-width="0.1"/>
<path d="M5.22413 9.49415L5.18878 9.52951L5.22413 9.56486L5.49785 9.83858L5.5332 9.87393L5.56856 9.83858L6.21088 9.19626L6.24623 9.1609L6.21088 9.12555L5.93716 8.85183L5.90181 8.81648L5.86645 8.85183L5.22413 9.49415Z" fill="#718193" stroke="#718193" stroke-width="0.1"/>
<path d="M7.14991 7.56984L7.11456 7.60519L7.14991 7.64055L7.42363 7.91426L7.45898 7.94962L7.49434 7.91426L8.13666 7.27194L8.17201 7.23659L8.13666 7.20123L7.86294 6.92752L7.82759 6.89216L7.79223 6.92752L7.14991 7.56984Z" fill="#718193" stroke="#718193" stroke-width="0.1"/>
<path d="M6.18898 8.53321L6.15362 8.56857L6.18898 8.60392L6.46269 8.87764L6.49805 8.913L6.5334 8.87764L7.17572 8.23532L7.21108 8.19996L7.17572 8.16461L6.90201 7.89089L6.86665 7.85554L6.8313 7.89089L6.18898 8.53321Z" fill="#718193" stroke="#718193" stroke-width="0.1"/>
<path d="M9.07667 5.64112L9.04132 5.67648L9.07667 5.71183L9.35039 5.98555L9.38574 6.02091L9.4211 5.98555L10.0634 5.34323L10.0988 5.30787L10.0634 5.27252L9.7897 4.9988L9.75435 4.96345L9.71899 4.9988L9.07667 5.64112Z" fill="#718193" stroke="#718193" stroke-width="0.1"/>
<path d="M10.0425 4.67775L10.0071 4.7131L10.0425 4.74846L10.3162 5.02217L10.3516 5.05753L10.3869 5.02217L11.0292 4.37985L11.0646 4.3445L11.0292 4.30914L10.7555 4.03542L10.7202 4.00007L10.6848 4.03542L10.0425 4.67775Z" fill="#718193" stroke="#718193" stroke-width="0.1"/>
<path d="M11.2727 2.71428L11.2727 2.71424C10.1304 1.57718 8.61323 0.95 7 0.95C5.37396 0.95 3.85413 1.57712 2.71436 2.71428L2.71432 2.71432C1.5771 3.85155 0.95 5.37399 0.95 7C0.95 8.61323 1.57718 10.1304 2.71424 11.2727L2.71428 11.2727C3.85657 12.4176 5.37898 13.05 7 13.05C8.6108 13.05 10.128 12.4176 11.2728 11.2728C12.4176 10.128 13.05 8.60821 13.05 7C13.05 5.37898 12.4176 3.85656 11.2727 2.71428ZM3.83299 11.5719L4.28181 11.1231L4.31716 11.0877L4.28181 11.0524L4.00826 10.7788L3.9729 10.7435L3.93755 10.7788L3.44318 11.2732C3.17702 11.0523 2.93243 10.8057 2.71144 10.5412L3.18761 10.065L3.22297 10.0297L3.18761 9.99432L2.91407 9.72077L2.87871 9.68542L2.84335 9.72077L2.41329 10.1508C2.35855 10.0714 2.30549 9.98943 2.25515 9.90588L9.90328 2.25776C9.98643 2.30805 10.0672 2.36118 10.1479 2.41621L9.91174 2.65239L9.87639 2.68774L9.91174 2.7231L10.1853 2.99665L10.2206 3.032L10.256 2.99665L10.5414 2.71127C10.8055 2.92973 11.0477 3.16977 11.2662 3.4314L10.9972 3.71666L10.9629 3.753L10.9992 3.78731L11.2805 4.05312L11.3169 4.0875L11.3512 4.05108L11.565 3.82435C11.6183 3.90005 11.6691 3.97724 11.7185 4.05596L4.05577 11.7187C3.97941 11.6714 3.90485 11.6229 3.83299 11.5719ZM1.4371 7C1.4371 3.93342 3.93342 1.4371 7 1.4371C7.88361 1.4371 8.7186 1.64295 9.46034 2.01218L2.01231 9.46021C1.64531 8.71838 1.4371 7.88343 1.4371 7ZM7 12.5629C6.101 12.5629 5.25054 12.3471 4.4981 11.9675L11.9676 4.49797C12.3495 5.25033 12.5629 6.10082 12.5629 7C12.5629 10.0666 10.0666 12.5629 7 12.5629Z" fill="#718193" stroke="#718193" stroke-width="0.1"/>
<path d="M10.2121 10.6363C10.3466 10.6363 10.4557 10.5273 10.4557 10.3928C10.4557 10.2583 10.3466 10.1492 10.2121 10.1492C10.0776 10.1492 9.96855 10.2583 9.96855 10.3928C9.96855 10.5273 10.0776 10.6363 10.2121 10.6363Z" fill="#718193" stroke="#718193" stroke-width="0.1"/>
</svg>
