<svg width="17" height="12" viewBox="0 0 17 12" fill="none" xmlns="http://www.w3.org/2000/svg">
<path d="M8.05039 10.6248C8.05039 10.336 8.18022 10.061 8.44477 9.7946C8.71291 9.52455 9.10162 9.28337 9.5618 9.08192C10.4843 8.67806 11.5984 8.4748 12.3254 8.4748C13.0523 8.4748 14.1665 8.67806 15.089 9.08192C15.5492 9.28337 15.9379 9.52455 16.206 9.7946C16.4706 10.061 16.6004 10.336 16.6004 10.6248V11.4998H8.05039V10.6248ZM14.0504 4.6748C14.0504 5.31766 13.6884 5.87837 13.1583 6.17889C12.9063 6.31861 12.6246 6.3998 12.3254 6.3998C12.0262 6.3998 11.7445 6.31861 11.4925 6.1789C10.9624 5.87838 10.6004 5.31767 10.6004 4.6748C10.6004 3.72272 11.3733 2.9498 12.3254 2.9498C13.2775 2.9498 14.0504 3.72272 14.0504 4.6748Z" stroke="#718193" stroke-width="0.8"/>
<path d="M5.95 7.75C6.35781 7.75 6.85037 7.79444 7.3777 7.87835C6.87039 8.25519 6.44463 8.71255 6.17654 9.25741C6.1514 9.25662 6.12551 9.2555 6.09884 9.25434L6.09777 9.2543C6.04965 9.2522 5.99894 9.25 5.95 9.25C4.63204 9.25 3.1632 9.67954 2.30942 10.1107L2.3545 10.3H5.87455C5.85937 10.4054 5.85 10.5148 5.85 10.625V11.8H0.1V10.625C0.1 10.1665 0.328429 9.75781 0.71784 9.39809C1.10795 9.03772 1.65298 8.73329 2.26631 8.48764C3.49311 7.99629 4.96796 7.75 5.95 7.75ZM8.825 2.975C8.825 4.56027 7.53527 5.85 5.95 5.85C4.36473 5.85 3.075 4.56027 3.075 2.975C3.075 1.38973 4.36473 0.1 5.95 0.1C7.53527 0.1 8.825 1.38973 8.825 2.975ZM7.325 2.975C7.325 2.21427 6.71073 1.6 5.95 1.6C5.18927 1.6 4.575 2.21427 4.575 2.975C4.575 3.73573 5.18927 4.35 5.95 4.35C6.71073 4.35 7.325 3.73573 7.325 2.975Z" fill="#718193" stroke="white" stroke-width="0.2"/>
</svg>
