<svg width="24" height="24" viewBox="0 0 24 24" fill="none" xmlns="http://www.w3.org/2000/svg">
<path fill-rule="evenodd" clip-rule="evenodd" d="M11.1433 17.9999C7.35618 17.9999 4.28613 14.9299 4.28613 11.1428C4.28613 7.35569 7.35618 4.28564 11.1433 4.28564C14.9304 4.28564 18.0004 7.35569 18.0004 11.1428C18.0004 12.7274 17.4629 14.1865 16.5603 15.3476L19.4637 18.251C19.7984 18.5857 19.7984 19.1284 19.4637 19.4632C19.1289 19.7979 18.5862 19.7979 18.2515 19.4632L15.3481 16.5598C14.187 17.4624 12.7279 17.9999 11.1433 17.9999ZM11.1433 16.2856C13.9836 16.2856 16.2861 13.9831 16.2861 11.1428C16.2861 8.30247 13.9836 5.99993 11.1433 5.99993C8.30295 5.99993 6.00042 8.30247 6.00042 11.1428C6.00042 13.9831 8.30295 16.2856 11.1433 16.2856Z" fill="#FECC08"/>
</svg>
