<svg width="28" height="28" viewBox="0 0 28 28" fill="none" xmlns="http://www.w3.org/2000/svg">
<path fill-rule="evenodd" clip-rule="evenodd" d="M11.7084 21.7083C11.7084 20.4427 12.7344 19.4167 14 19.4167C15.2657 19.4167 16.2917 20.4427 16.2917 21.7083C16.2917 22.974 15.2657 24 14 24C12.7344 24 11.7084 22.974 11.7084 21.7083ZM14 11.7083C12.7344 11.7083 11.7084 12.7343 11.7084 14C11.7084 15.2657 12.7344 16.2917 14 16.2917C15.2657 16.2917 16.2917 15.2657 16.2917 14C16.2917 12.7343 15.2657 11.7083 14 11.7083ZM14 4C12.7344 4 11.7084 5.02601 11.7084 6.29167C11.7084 7.55732 12.7344 8.58333 14 8.58333C15.2657 8.58333 16.2917 7.55732 16.2917 6.29167C16.2917 5.02601 15.2657 4 14 4Z" fill="#00298E"/>
</svg>
