<svg width="22" height="22" viewBox="0 0 22 22" fill="none" xmlns="http://www.w3.org/2000/svg">
<path d="M21 11H21.5H21ZM14.2667 11.55L14.5665 11.9501L14.5667 11.95L14.2667 11.55ZM10.225 14.5792L9.92513 14.1791L9.925 14.1792L10.225 14.5792ZM10.225 7.42083L9.925 7.82083L9.92513 7.82093L10.225 7.42083ZM14.2667 10.45L14.5667 10.05L14.5665 10.0499L14.2667 10.45ZM11 0.5C5.20101 0.5 0.5 5.20101 0.5 11H1.5C1.5 5.75329 5.75329 1.5 11 1.5V0.5ZM0.5 11C0.5 16.799 5.20101 21.5 11 21.5V20.5C5.75329 20.5 1.5 16.2467 1.5 11H0.5ZM11 21.5C16.799 21.5 21.5 16.799 21.5 11H20.5C20.5 16.2467 16.2467 20.5 11 20.5V21.5ZM21.5 11C21.5 8.21523 20.3938 5.54451 18.4246 3.57538L17.7175 4.28249C19.4991 6.06408 20.5 8.48044 20.5 11H21.5ZM18.4246 3.57538C16.4555 1.60625 13.7848 0.5 11 0.5V1.5C13.5196 1.5 15.9359 2.50089 17.7175 4.28249L18.4246 3.57538ZM13.9668 11.1499L9.92513 14.1791L10.5249 14.9793L14.5665 11.9501L13.9668 11.1499ZM9.925 14.1792C9.86818 14.2218 9.79217 14.2286 9.72865 14.1969L9.28143 15.0913C9.68374 15.2925 10.1652 15.249 10.525 14.9792L9.925 14.1792ZM9.72865 14.1969C9.66513 14.1651 9.625 14.1002 9.625 14.0292H8.625C8.625 14.479 8.87913 14.8901 9.28143 15.0913L9.72865 14.1969ZM9.625 14.0292V7.97083H8.625V14.0292H9.625ZM9.625 7.97083C9.625 7.89981 9.66513 7.83489 9.72865 7.80313L9.28143 6.9087C8.87913 7.10985 8.625 7.52104 8.625 7.97083H9.625ZM9.72865 7.80313C9.79217 7.77137 9.86818 7.77822 9.925 7.82083L10.525 7.02083C10.1652 6.75096 9.68374 6.70755 9.28143 6.9087L9.72865 7.80313ZM9.92513 7.82093L13.9668 10.8501L14.5665 10.0499L10.5249 7.02073L9.92513 7.82093ZM13.9667 10.85C14.0139 10.8854 14.0417 10.941 14.0417 11H15.0417C15.0417 10.6262 14.8657 10.2743 14.5667 10.05L13.9667 10.85ZM14.0417 11C14.0417 11.059 14.0139 11.1146 13.9667 11.15L14.5667 11.95C14.8657 11.7257 15.0417 11.3738 15.0417 11H14.0417Z" fill="#718193"/>
</svg>
