<svg width="20" height="12" viewBox="0 0 20 12" fill="none" xmlns="http://www.w3.org/2000/svg">
<path fill-rule="evenodd" clip-rule="evenodd" d="M9.9975 9.85718C7.92697 9.85718 6.24805 8.13004 6.24805 6.00004C6.24805 3.87004 7.92697 2.1429 9.9975 2.1429C12.068 2.1429 13.747 3.87004 13.747 6.00004C13.747 8.13004 12.068 9.85718 9.9975 9.85718ZM19.7794 5.42571C13.2595 -1.80857 6.73548 -1.80857 0.215594 5.42571C-0.0718645 5.75143 -0.0718645 6.24857 0.215594 6.57429C6.73548 13.8086 13.2595 13.8086 19.7794 6.57429C20.0669 6.24857 20.0669 5.75143 19.7794 5.42571Z" fill="#D9D9D9" fill-opacity="0.55"/>
<path fill-rule="evenodd" clip-rule="evenodd" d="M12.0801 5.99979C12.0801 7.18308 11.1473 8.14265 9.99709 8.14265C8.84684 8.14265 7.91406 7.18308 7.91406 5.99979C7.91406 4.81651 8.84684 3.85693 9.99709 3.85693C11.1473 3.85693 12.0801 4.81651 12.0801 5.99979Z" fill="#D9D9D9" fill-opacity="0.55"/>
</svg>
