<svg id="svg" version="1.1" xmlns="http://www.w3.org/2000/svg" xmlns:xlink="http://www.w3.org/1999/xlink" width="400" height="400" viewBox="0, 0, 400,400"><g id="svgg"><path id="path0" d="M355.812 67.002 C 354.088 67.275,290.687 115.917,287.625 119.316 C 286.304 120.782,285.877 122.041,286.088 123.851 C 286.564 127.921,278.527 130.833,266.797 130.839 C 258.263 130.844,258.083 130.805,241.016 125.271 C 217.604 117.680,214.441 117.484,203.715 122.949 L 198.445 125.634 194.631 124.185 C 187.970 121.654,184.131 121.591,167.949 123.749 C 151.884 125.891,126.617 128.125,118.455 128.125 L 113.595 128.125 113.880 125.586 C 114.282 122.003,115.487 123.062,78.655 94.601 C 43.189 67.196,42.564 66.811,39.082 70.293 C 38.234 71.141,37.351 72.635,37.120 73.613 C 29.517 105.787,5.328 212.809,5.259 214.579 C 5.118 218.202,5.762 218.704,22.894 228.312 C 44.063 240.185,44.359 240.254,48.152 234.165 C 49.284 232.347,50.330 230.722,50.476 230.554 C 50.622 230.386,52.420 231.594,54.472 233.238 C 56.524 234.883,58.316 236.304,58.453 236.398 C 58.590 236.491,57.911 238.096,56.942 239.963 C 50.500 252.393,59.728 269.414,73.692 270.855 L 77.927 271.292 78.351 275.402 C 79.508 286.611,88.181 294.467,100.165 295.161 C 105.732 295.483,106.251 295.654,106.258 297.171 C 106.311 308.821,124.219 318.845,136.054 313.849 L 138.906 312.645 140.266 316.208 C 143.405 324.427,151.171 329.666,160.235 329.680 C 168.320 329.692,171.497 328.180,181.033 319.784 L 185.625 315.741 198.477 323.208 C 214.528 332.535,215.525 332.950,221.875 332.950 C 232.292 332.950,240.339 326.955,242.953 317.245 C 243.816 314.039,243.900 313.974,246.333 314.596 C 251.721 315.975,258.195 315.295,262.978 312.849 C 269.655 309.434,272.751 304.933,274.562 296.006 C 274.945 294.117,275.347 293.936,279.977 293.564 C 291.245 292.660,299.104 284.847,300.475 273.189 L 300.977 268.918 304.193 268.404 C 314.389 266.774,322.656 257.329,322.656 247.312 C 322.656 244.245,323.096 243.682,333.925 232.872 L 345.193 221.624 348.297 226.632 C 353.383 234.840,354.467 235.938,357.488 235.937 C 361.248 235.937,393.559 217.792,394.580 215.107 C 395.470 212.764,363.162 70.777,361.260 68.675 C 359.893 67.164,358.156 66.631,355.812 67.002 M368.050 146.680 L 382.507 209.766 371.159 216.162 L 359.811 222.558 356.858 217.887 C 355.234 215.318,353.182 211.912,352.298 210.319 C 351.414 208.726,339.169 188.789,325.088 166.016 L 299.484 124.609 304.274 120.906 C 306.908 118.870,318.714 109.671,330.508 100.465 C 342.303 91.259,352.322 83.697,352.774 83.661 C 353.233 83.623,359.955 111.350,368.050 146.680 M73.785 105.835 C 88.203 116.993,100.000 126.405,100.000 126.750 C 100.000 127.387,41.756 222.498,40.625 223.707 C 39.920 224.461,18.039 212.520,17.943 211.328 C 17.802 209.584,46.525 85.177,47.027 85.355 C 47.326 85.460,59.367 94.676,73.785 105.835 M237.719 136.480 L 255.859 142.491 266.406 142.489 C 276.441 142.487,277.275 142.363,283.594 139.933 C 287.246 138.528,290.920 137.318,291.757 137.244 C 293.027 137.132,335.243 203.508,338.053 210.034 C 338.332 210.684,334.531 215.065,328.065 221.544 L 317.626 232.005 315.258 229.745 C 305.901 220.810,225.141 156.251,223.320 156.251 C 222.181 156.250,218.489 157.665,215.117 159.395 C 197.452 168.454,180.372 169.606,166.406 162.678 C 159.970 159.486,159.941 159.511,186.719 145.209 C 219.577 127.659,213.988 128.616,237.719 136.480 M176.172 137.438 C 172.305 139.531,165.639 143.126,161.358 145.428 C 151.872 150.529,150.000 152.827,150.000 159.375 C 150.000 178.125,190.170 185.053,217.969 171.097 L 222.266 168.940 264.844 203.575 C 288.262 222.625,308.213 239.334,309.180 240.706 C 312.719 245.727,310.647 253.165,304.957 255.864 C 299.248 258.573,298.963 258.413,261.960 231.733 C 225.399 205.371,224.708 204.980,221.094 208.594 C 216.245 213.442,216.565 213.754,253.829 240.532 C 271.190 253.007,286.041 264.196,286.832 265.396 C 292.407 273.850,282.364 285.475,273.463 280.872 C 272.230 280.235,258.348 270.573,242.614 259.400 C 207.196 234.252,207.966 234.630,204.978 240.897 C 202.791 245.483,203.419 246.070,233.117 267.181 C 259.017 285.593,260.971 287.146,262.165 290.271 C 264.995 297.682,257.903 305.642,250.503 303.360 C 249.152 302.944,235.780 294.107,220.786 283.723 C 192.647 264.235,191.303 263.518,187.674 266.060 C 185.911 267.295,185.236 271.950,186.535 273.915 C 186.851 274.393,196.318 281.174,207.573 288.984 C 218.828 296.795,228.935 304.253,230.034 305.559 C 235.734 312.333,228.188 323.576,219.595 321.112 C 217.922 320.632,196.568 308.840,194.629 307.325 C 194.468 307.199,194.927 305.619,195.649 303.813 C 201.037 290.349,190.977 273.438,177.581 273.438 C 174.294 273.438,174.219 273.380,174.219 270.842 C 174.219 260.835,163.786 250.030,154.102 250.008 C 150.982 250.000,150.781 249.867,150.781 247.798 C 150.781 233.277,132.037 221.056,119.765 227.578 C 116.530 229.297,116.672 229.343,115.644 226.230 C 111.885 214.839,96.816 208.385,85.829 213.459 C 83.526 214.523,78.388 218.278,74.413 221.804 L 67.186 228.215 62.533 224.635 C 59.974 222.666,57.700 220.763,57.480 220.406 C 57.259 220.050,68.086 201.865,81.540 179.996 L 106.000 140.234 119.211 139.694 C 134.598 139.065,155.491 137.218,169.922 135.210 C 175.508 134.433,180.781 133.760,181.641 133.715 C 182.500 133.670,180.039 135.345,176.172 137.438 M101.298 225.864 C 109.388 233.323,105.948 239.464,83.723 257.227 C 75.549 263.760,63.120 254.426,67.554 245.084 C 68.778 242.504,87.478 225.328,90.470 224.036 C 93.126 222.889,99.179 223.911,101.298 225.864 M134.242 239.749 C 139.013 243.146,140.430 250.969,136.980 254.865 C 134.465 257.707,108.296 280.646,105.859 282.146 C 97.342 287.387,86.304 277.081,90.905 268.183 C 92.227 265.625,119.513 241.179,123.677 238.821 C 126.744 237.084,131.028 237.461,134.242 239.749 M157.745 263.245 C 161.768 265.398,163.603 271.724,161.526 276.282 C 160.050 279.523,133.804 302.218,130.329 303.259 C 125.823 304.609,120.441 301.655,118.432 296.728 C 115.850 290.395,117.150 288.415,132.904 274.683 C 148.897 260.744,151.141 259.711,157.745 263.245 M181.130 286.819 C 184.262 288.764,186.293 294.171,185.227 297.728 C 183.029 305.063,163.927 319.498,158.483 317.937 C 148.478 315.068,147.609 306.213,156.516 297.899 C 171.179 284.213,174.515 282.711,181.130 286.819 " stroke="none" fill="#000000" fill-rule="evenodd"></path></g></svg>