<svg id="svg" version="1.1" xmlns="http://www.w3.org/2000/svg" xmlns:xlink="http://www.w3.org/1999/xlink" width="400" height="400" viewBox="0, 0, 400,400"><g id="svgg"><path id="path0" d="M225.084 7.085 C 120.636 18.921,58.933 129.051,103.933 223.324 C 159.966 340.711,328.839 337.550,380.260 218.151 C 425.854 112.282,339.021 -5.825,225.084 7.085 M259.395 19.572 C 265.804 20.367,277.058 22.891,277.885 23.719 C 278.109 23.942,275.877 26.695,272.927 29.836 C 217.842 88.477,164.219 179.857,142.929 251.367 C 142.385 253.193,141.719 254.687,141.449 254.688 C 140.742 254.688,134.237 247.755,131.919 244.531 L 129.953 241.797 131.372 237.109 C 132.153 234.531,132.796 231.480,132.802 230.329 C 132.829 224.987,124.898 223.089,122.407 227.843 L 121.337 229.885 119.208 226.075 C 116.589 221.392,112.025 211.159,110.124 205.710 L 108.710 201.655 110.800 201.413 C 113.244 201.131,113.576 200.534,120.291 184.355 C 125.574 171.624,125.632 171.327,123.381 168.465 C 118.878 162.740,115.182 165.789,109.677 179.768 C 107.463 185.390,105.457 189.676,105.221 189.293 C 102.020 184.114,100.878 150.301,103.431 136.328 C 112.976 84.104,150.418 40.314,198.047 25.672 C 204.315 23.745,204.443 23.791,201.643 26.980 C 197.710 31.461,198.607 36.728,203.514 37.960 C 206.686 38.756,207.996 37.762,215.888 28.566 C 223.124 20.135,223.760 19.597,226.824 19.319 C 234.129 18.655,253.201 18.803,259.395 19.572 M243.094 24.023 C 240.705 26.313,229.837 38.503,226.326 42.833 C 222.483 47.574,224.426 53.125,229.929 53.125 C 233.133 53.125,233.530 52.796,240.794 44.141 C 244.039 40.273,247.647 36.230,248.812 35.156 C 253.412 30.914,254.175 25.590,250.546 23.048 C 248.050 21.300,245.603 21.620,243.094 24.023 M189.313 43.761 C 187.776 44.374,172.658 63.570,170.442 67.722 C 167.321 73.570,175.166 77.850,179.843 72.852 C 184.336 68.049,196.875 49.863,196.875 48.148 C 196.875 44.934,192.596 42.452,189.313 43.761 M331.849 52.795 C 335.379 55.882,335.939 56.763,335.949 59.240 C 335.967 63.510,339.318 66.393,342.929 65.247 C 346.811 64.015,364.062 91.131,370.628 108.784 C 403.622 197.490,343.849 289.633,248.536 296.995 C 235.347 298.014,235.604 298.064,236.777 294.699 C 237.950 291.336,236.369 288.182,233.032 287.227 C 229.436 286.197,226.898 288.074,225.526 292.777 C 224.488 296.335,224.338 296.476,221.793 296.266 C 219.057 296.041,208.451 293.746,207.884 293.257 C 207.708 293.105,208.740 289.483,210.178 285.207 C 213.089 276.549,212.850 274.126,208.940 272.639 C 204.004 270.763,202.263 272.693,198.904 283.770 L 196.836 290.587 192.754 288.961 C 190.509 288.067,188.232 287.159,187.695 286.943 C 186.215 286.350,186.361 285.694,191.481 269.882 C 217.424 189.776,260.769 117.160,317.484 58.789 C 328.306 47.652,326.724 48.312,331.849 52.795 M213.965 58.602 C 211.013 60.326,195.313 82.545,195.313 84.997 C 195.313 89.275,201.107 91.469,204.504 88.477 C 207.936 85.453,221.875 64.924,221.875 62.893 C 221.875 58.369,217.980 56.256,213.965 58.602 M323.691 69.754 C 321.205 71.142,303.978 90.710,303.426 92.773 C 300.820 102.512,309.786 102.258,318.078 92.360 C 321.217 88.613,325.535 83.681,327.674 81.400 C 334.311 74.323,331.296 65.508,323.691 69.754 M160.455 83.160 C 158.955 84.211,147.795 101.279,145.054 106.716 C 142.109 112.556,148.970 118.887,153.420 114.437 C 156.244 111.614,168.750 89.647,168.750 87.511 C 168.750 83.422,163.793 80.822,160.455 83.160 M348.828 84.518 C 347.002 85.474,330.567 103.996,329.036 106.824 C 326.917 110.737,329.609 114.844,334.294 114.844 C 337.545 114.844,357.031 94.020,357.031 90.545 C 357.031 85.504,352.834 82.420,348.828 84.518 M184.858 99.496 C 181.074 103.567,169.531 123.336,169.531 125.745 C 169.531 129.851,175.178 132.791,178.228 130.273 C 180.768 128.176,194.531 103.985,194.531 101.617 C 194.531 96.823,188.559 95.514,184.858 99.496 M293.910 105.301 C 290.907 105.779,274.219 128.631,274.219 132.266 C 274.219 136.091,277.986 137.922,282.382 136.235 C 283.364 135.859,298.555 115.478,301.044 111.198 C 302.683 108.380,298.144 104.628,293.910 105.301 M318.180 120.555 C 315.420 122.088,299.219 144.316,299.219 146.569 C 299.219 150.446,303.385 153.106,307.176 151.649 C 310.251 150.467,325.781 128.079,325.781 124.827 C 325.781 120.322,322.211 118.315,318.180 120.555 M135.671 123.815 C 134.297 125.189,126.005 141.441,123.407 147.853 C 120.476 155.087,123.747 159.743,130.061 157.320 C 131.353 156.825,145.313 129.849,145.313 127.848 C 145.313 123.843,138.495 120.991,135.671 123.815 M160.606 140.039 C 157.236 145.193,148.132 165.504,148.129 167.874 C 148.123 172.164,151.545 174.297,155.823 172.670 C 158.621 171.606,171.564 145.729,170.807 142.712 C 169.655 138.124,162.998 136.379,160.606 140.039 M265.127 144.523 C 262.705 145.501,248.438 168.613,248.438 171.558 C 248.438 175.509,250.417 177.464,254.142 177.190 L 257.355 176.953 264.970 164.453 C 273.419 150.585,274.136 148.152,270.598 145.369 C 268.361 143.610,267.658 143.501,265.127 144.523 M290.309 160.352 C 287.354 162.994,274.217 185.144,274.231 187.461 C 274.253 191.100,277.447 193.413,281.285 192.570 C 283.793 192.020,297.939 169.877,298.921 164.964 C 299.902 160.062,294.104 156.958,290.309 160.352 M59.766 175.689 C 55.538 178.331,26.829 208.052,26.268 210.368 C 25.335 214.219,28.322 217.900,32.416 217.944 C 36.345 217.986,69.531 184.360,69.531 180.337 C 69.531 175.140,64.486 172.739,59.766 175.689 M140.732 181.836 C 138.713 183.531,128.906 207.629,128.906 210.895 C 128.906 215.601,134.567 218.154,138.093 215.039 C 138.944 214.287,140.803 210.684,142.224 207.031 C 143.645 203.379,145.976 197.798,147.404 194.629 C 152.054 184.308,147.710 175.977,140.732 181.836 M239.633 185.742 C 236.969 188.693,226.562 211.268,226.587 214.042 C 226.622 217.837,228.110 219.531,231.410 219.531 C 233.022 219.531,234.627 218.973,235.342 218.164 C 237.498 215.727,249.219 191.485,249.219 189.462 C 249.219 185.132,242.528 182.535,239.633 185.742 M265.425 201.367 C 262.839 204.257,252.344 226.736,252.344 229.384 C 252.344 234.150,256.859 236.675,260.643 234.024 C 262.644 232.623,275.000 207.953,275.000 205.360 C 275.000 200.590,268.533 197.894,265.425 201.367 M12.760 222.917 C 5.895 229.782,6.416 236.719,13.796 236.719 C 17.990 236.719,26.563 228.333,26.563 224.231 C 26.563 216.478,19.839 215.838,12.760 222.917 M220.059 228.220 C 218.526 229.112,217.555 231.147,211.643 245.864 C 206.314 259.130,206.737 263.281,213.417 263.281 C 216.934 263.281,217.886 262.121,221.109 253.906 C 222.542 250.254,224.882 244.673,226.310 241.504 C 230.845 231.439,227.338 223.987,220.059 228.220 M61.719 228.649 C 57.858 230.075,42.188 247.308,42.188 250.126 C 42.188 253.604,45.002 256.250,48.702 256.250 C 52.574 256.250,69.531 238.959,69.531 235.012 C 69.531 230.563,65.476 227.261,61.719 228.649 M244.696 243.586 C 242.923 245.358,233.519 268.200,233.015 271.958 C 232.342 276.973,239.089 280.424,242.398 276.758 C 243.457 275.585,247.577 266.193,253.207 252.120 C 256.114 244.853,249.780 238.501,244.696 243.586 M19.302 270.957 C 6.935 283.423,6.291 284.573,9.432 288.567 C 13.095 293.223,15.476 292.025,28.354 279.043 C 40.721 266.577,41.366 265.427,38.225 261.433 C 34.562 256.777,32.180 257.975,19.302 270.957 M63.672 282.016 C 59.779 283.678,29.654 315.226,29.182 318.136 C 28.583 321.828,31.408 325.000,35.297 325.000 C 39.182 325.000,72.656 291.526,72.656 287.640 C 72.656 282.963,68.114 280.120,63.672 282.016 M69.141 324.201 C 65.641 325.688,14.844 377.707,14.844 379.804 C 14.844 383.151,17.622 385.938,20.959 385.938 C 24.754 385.938,77.344 334.075,77.344 330.333 C 77.344 325.383,73.362 322.407,69.141 324.201 M15.104 329.948 C 8.035 337.017,8.606 343.324,16.316 343.324 C 20.870 343.324,28.906 335.595,28.906 331.215 C 28.906 323.511,22.161 322.891,15.104 329.948 M112.109 328.872 C 103.677 332.371,95.792 345.846,100.089 349.414 C 104.349 352.951,119.503 342.178,119.693 335.478 C 119.808 331.445,115.997 326.762,113.751 328.175 C 113.707 328.202,112.969 328.516,112.109 328.872 M163.672 332.013 C 159.434 333.813,110.156 384.785,110.156 387.367 C 110.156 390.805,113.121 393.750,116.581 393.750 C 120.511 393.750,172.656 341.566,172.656 337.634 C 172.656 332.965,168.116 330.124,163.672 332.013 M213.608 348.540 C 197.916 364.232,196.094 366.320,196.094 368.610 C 196.094 372.038,199.056 375.000,202.484 375.000 C 206.270 375.000,239.844 341.536,239.844 337.763 C 239.844 334.427,237.693 332.077,234.116 331.504 L 231.123 331.025 213.608 348.540 M73.216 367.037 C 56.671 383.657,56.177 384.429,59.432 388.567 C 63.281 393.460,65.085 392.397,82.359 375.044 C 99.298 358.027,99.971 356.871,95.224 352.930 C 91.126 349.528,89.799 350.378,73.216 367.037 M187.085 375.294 C 176.896 379.809,174.351 392.969,183.667 392.969 C 187.448 392.969,196.094 384.454,196.094 380.730 C 196.094 375.965,191.637 373.277,187.085 375.294 " stroke="none" fill="#000000" fill-rule="evenodd"></path></g></svg>