<svg id="svg" version="1.1" xmlns="http://www.w3.org/2000/svg" xmlns:xlink="http://www.w3.org/1999/xlink" width="400" height="400" viewBox="0, 0, 400,400"><g id="svgg"><path id="path0" d="M158.324 17.835 C 157.152 19.130,157.031 23.518,157.031 64.710 L 157.031 110.156 127.074 110.156 C 98.528 110.156,97.053 110.227,95.760 111.656 C 94.303 113.266,41.406 372.643,41.406 378.177 C 41.406 384.116,26.109 383.594,200.136 383.594 C 374.960 383.594,358.594 384.167,358.594 378.041 C 358.594 372.598,305.674 113.240,304.240 111.656 C 302.947 110.227,301.472 110.156,272.926 110.156 L 242.969 110.156 242.969 64.574 C 242.969 21.407,242.893 18.924,241.540 17.699 C 239.228 15.607,160.224 15.736,158.324 17.835 M194.531 68.750 L 194.531 110.156 181.250 110.156 L 167.969 110.156 167.969 68.750 L 167.969 27.344 181.250 27.344 L 194.531 27.344 194.531 68.750 M232.031 68.750 L 232.031 110.156 218.750 110.156 L 205.469 110.156 205.469 68.750 L 205.469 27.344 218.750 27.344 L 232.031 27.344 232.031 68.750 M295.318 121.680 C 295.321 122.002,296.903 129.927,298.834 139.292 C 300.764 148.656,302.344 156.478,302.344 156.674 C 302.344 156.871,256.289 157.031,200.000 157.031 C 143.711 157.031,97.656 156.871,97.656 156.674 C 97.656 156.478,99.236 148.656,101.166 139.292 C 103.097 129.927,104.679 122.002,104.682 121.680 C 104.685 121.357,147.578 121.094,200.000 121.094 C 252.422 121.094,295.315 121.357,295.318 121.680 M304.688 168.180 C 304.688 168.478,335.851 322.750,336.247 324.414 C 336.554 325.705,333.947 325.781,289.771 325.781 L 242.969 325.781 242.969 303.772 C 242.969 284.389,242.814 281.593,241.676 280.335 C 239.776 278.236,160.772 278.107,158.460 280.199 C 157.140 281.394,157.031 283.176,157.031 303.637 L 157.031 325.781 110.229 325.781 C 66.053 325.781,63.446 325.705,63.753 324.414 C 64.149 322.750,95.313 168.478,95.313 168.180 C 95.313 168.064,142.422 167.969,200.000 167.969 C 257.578 167.969,304.688 168.064,304.688 168.180 M194.531 307.813 L 194.531 325.781 181.250 325.781 L 167.969 325.781 167.969 307.813 L 167.969 289.844 181.250 289.844 L 194.531 289.844 194.531 307.813 M232.031 307.813 L 232.031 325.781 218.750 325.781 L 205.469 325.781 205.469 307.813 L 205.469 289.844 218.750 289.844 L 232.031 289.844 232.031 307.813 M157.031 354.688 L 157.031 372.656 105.416 372.656 C 56.632 372.656,53.822 372.581,54.190 371.289 C 54.403 370.537,56.085 362.451,57.926 353.320 L 61.274 336.719 109.153 336.719 L 157.031 336.719 157.031 354.688 M194.531 354.688 L 194.531 372.656 181.250 372.656 L 167.969 372.656 167.969 354.688 L 167.969 336.719 181.250 336.719 L 194.531 336.719 194.531 354.688 M232.031 354.688 L 232.031 372.656 218.750 372.656 L 205.469 372.656 205.469 354.688 L 205.469 336.719 218.750 336.719 L 232.031 336.719 232.031 354.688 M342.074 353.320 C 343.915 362.451,345.597 370.537,345.810 371.289 C 346.178 372.581,343.368 372.656,294.584 372.656 L 242.969 372.656 242.969 354.688 L 242.969 336.719 290.847 336.719 L 338.726 336.719 342.074 353.320 " stroke="none" fill="#000000" fill-rule="evenodd"></path></g></svg>